<svg width="51" height="54" viewBox="0 0 51 54" fill="none" xmlns="http://www.w3.org/2000/svg">
<g id="logo_earth" clip-path="url(#clip0_9_22)">
<g id="Frame">
<g id="Group">
<g id="Group_2">
<path id="Vector" d="M25.1382 49.2397C30.7691 49.2397 36.0481 46.9519 40.02 42.7487C43.9918 38.5455 46.1537 32.959 46.1537 27C46.1537 21.041 43.9918 15.4545 40.02 11.2513C36.0481 7.04807 30.7691 4.76025 25.1382 4.76025C19.5072 4.76025 14.2282 7.04807 10.2564 11.2513C6.28455 15.4545 4.12267 21.041 4.12267 27C4.12267 32.959 6.28455 38.5455 10.2564 42.7487C14.2282 46.9519 19.5072 49.2397 25.1382 49.2397ZM26.3448 45.4622C25.9426 45.5154 25.5404 45.5154 25.1382 45.5154C24.5851 45.5154 24.0321 45.4622 23.479 45.409C21.6691 42.4295 20.3116 39.2372 19.5072 35.8853H28.4061C28.7078 36.6833 29.2608 37.4282 29.9144 37.907C29.0597 40.5673 27.8531 43.068 26.3448 45.4622V45.4622ZM31.121 44.3981C32.0763 42.5359 32.8304 40.6737 33.4338 38.7051C34.8918 38.3859 36.0481 37.3218 36.6012 35.8853H40.4724C38.4614 39.7692 35.0929 42.8019 31.121 44.3981ZM42.584 27C42.584 28.7558 42.3327 30.4583 41.9305 32.1077H36.5006C36.199 31.416 35.6962 30.7776 35.0929 30.2987C35.1934 29.1282 35.2437 27.9577 35.2437 26.7872C35.2437 25.1378 35.1432 23.4885 34.942 21.8923H41.8802C42.3829 23.4885 42.584 25.2442 42.584 27V27ZM40.4724 18.1147H34.3387C33.6851 15.1885 32.7299 12.4218 31.4227 9.76154C35.2437 11.3045 38.4614 14.3372 40.4724 18.1147ZM31.7244 26.7872C31.7244 27.6917 31.6741 28.5962 31.6238 29.5006C30.2161 29.8199 29.0597 30.7776 28.5067 32.1077H18.8033C18.6022 30.5115 18.4514 28.8622 18.4514 27.266C18.4514 26.2551 18.5017 25.2442 18.6022 24.2333C19.9094 23.9673 20.9652 23.0628 21.6188 21.8923H31.4227C31.6238 23.4885 31.7244 25.1378 31.7244 26.7872V26.7872ZM23.831 8.59102C24.2835 8.53782 24.736 8.53782 25.1382 8.53782C25.6409 8.53782 26.1437 8.53782 26.6465 8.59102C28.4564 11.5705 29.8139 14.7628 30.6183 18.1147H21.8702C21.5685 17.2103 21.0155 16.4122 20.3116 15.8269C21.2166 13.2731 22.373 10.8788 23.831 8.59102ZM19.0547 9.65512C18.2 11.3577 17.4459 13.1667 16.8426 14.9756C15.284 15.2949 14.0271 16.5186 13.5243 18.0615H9.85417C11.8149 14.284 15.0829 11.2513 19.0547 9.65512ZM7.69229 27C7.69229 25.2442 7.94367 23.4885 8.39615 21.8923H13.8763C14.1779 22.4776 14.6304 23.0096 15.1332 23.4353C15.0326 24.7122 14.9321 25.9891 14.9321 27.266C14.9321 28.9154 15.0326 30.5115 15.2337 32.1077H8.39615C7.89339 30.4583 7.69229 28.7558 7.69229 27ZM15.837 35.8321C16.4906 38.7051 17.4459 41.525 18.7531 44.1852C14.9321 42.5891 11.7647 39.6096 9.80389 35.8321H15.837Z" />
</g>
</g>
</g>
</g>
<defs>
<clipPath id="clip0_9_22">
<rect width="50.2763" height="53.2051" fill="white" transform="translate(0 0.39743)"/>
</clipPath>
</defs>
</svg>
