<svg width="330" height="330" viewBox="0 0 330 330" fill="none" xmlns="http://www.w3.org/2000/svg">
<g id="logout">
<g id="Group">
<path id="Vector" d="M305 149.998H121.215L165.607 105.606C171.465 99.748 171.465 90.251 165.607 84.393C159.75 78.535 150.252 78.535 144.394 84.393L74.396 154.391C68.538 160.248 68.538 169.746 74.396 175.604L144.394 245.606C147.323 248.535 151.161 250 155 250C158.838 249.999 162.678 248.535 165.606 245.607C171.463 239.749 171.464 230.252 165.606 224.394L121.212 179.998H305C313.284 179.998 320 173.282 320 164.998C320 156.714 313.284 149.998 305 149.998Z" />
<path id="Vector_2" d="M155 300H40V30H155C163.284 30 170 23.284 170 15C170 6.716 163.284 0 155 0H25C16.716 0 10 6.716 10 15V315C10 323.284 16.716 330 25 330H155C163.284 330 170 323.284 170 315C170 306.716 163.284 300 155 300Z" />
</g>
</g>
</svg>
