<svg width="187" height="32" viewBox="0 0 187 32" fill="none" xmlns="http://www.w3.org/2000/svg">
<g id="logo_text" clip-path="url(#clip0_9_24)">
<path id="Vector" d="M11.264 24.9553C8.06667 24.9553 5.39 23.7623 3.234 21.3764C1.078 18.9904 0 16.012 0 12.4411C0 8.93523 1.078 5.98116 3.234 3.57896C5.39 1.19299 8.06667 0 11.264 0C14.476 0 17.2333 1.11183 19.536 3.33549L16.544 6.96315C15.004 5.6322 13.244 4.96672 11.264 4.96672C9.24 4.98295 7.60467 5.689 6.358 7.08488C5.126 8.46452 4.51 10.2337 4.51 12.3925C4.51 14.7135 5.13333 16.5557 6.38 17.9191C7.62667 19.2826 9.262 19.9643 11.286 19.9643C12.914 19.9643 14.1607 19.6153 15.026 18.9174V14.6323L12.034 14.6567V9.98213H19.536V21.6442C17.248 23.8516 14.4907 24.9553 11.264 24.9553ZM27.61 8.30221V10.1526C28.6953 8.93523 30.008 8.32656 31.548 8.32656C32.032 8.32656 32.494 8.36714 32.934 8.44829L32.274 13.0498C31.79 12.5629 31.0933 12.3032 30.184 12.2707C29.1573 12.3519 28.2993 13.1715 27.61 14.7297V24.9553H23.408V8.81349L27.61 8.30221ZM42.504 25.1258C40.3187 25.1258 38.4927 24.3142 37.026 22.6911C35.574 21.068 34.848 19.0553 34.848 16.6531C34.848 14.2347 35.574 12.2139 37.026 10.5908C38.4927 8.96769 40.3187 8.15613 42.504 8.15613C44.6893 8.15613 46.5153 8.96769 47.982 10.5908C49.4487 12.2139 50.182 14.2347 50.182 16.6531C50.182 19.0716 49.4487 21.0842 47.982 22.6911C46.5153 24.3142 44.6893 25.1258 42.504 25.1258ZM42.504 21.1086C43.6333 21.1086 44.5573 20.6784 45.276 19.8182C45.9947 18.9742 46.354 17.9191 46.354 16.6531C46.354 15.3871 45.9947 14.3321 45.276 13.4881C44.5573 12.6278 43.626 12.1977 42.482 12.1977C41.3527 12.1977 40.4287 12.6278 39.71 13.4881C39.006 14.3321 38.654 15.3871 38.654 16.6531C38.654 17.9191 39.006 18.9742 39.71 19.8182C40.4287 20.6784 41.36 21.1086 42.504 21.1086ZM62.106 19.0634V8.30221H66.308V24.9553H62.106V23.4458C61.094 24.4522 59.8913 24.9553 58.498 24.9553C56.5913 24.9553 55.1393 24.3142 54.142 23.0319C53.13 21.7497 52.624 20.2808 52.624 18.6252V8.30221H56.848V17.4566C56.848 18.5603 57.0973 19.4205 57.596 20.0373C58.0947 20.6541 58.85 20.9787 59.862 21.0112C60.742 20.9462 61.49 20.297 62.106 19.0634ZM74.096 31.9672L69.894 31.9428V8.81349L74.096 8.30221V9.64128C75.2253 8.74857 76.3327 8.30221 77.418 8.30221C79.7207 8.30221 81.5467 9.13812 82.896 10.8099C84.26 12.4655 84.942 14.4051 84.942 16.6288C84.942 18.8524 84.26 20.7921 82.896 22.4476C81.5467 24.1194 79.7207 24.9553 77.418 24.9553C75.9073 24.8417 74.8 24.3872 74.096 23.5919V31.9672ZM74.096 15.1193V17.8218C74.3013 19.6883 75.3573 20.7839 77.264 21.1086C79.6693 20.8976 81.026 19.5179 81.334 16.9696C81.2313 13.8533 79.8747 12.2383 77.264 12.1246C75.3573 12.4655 74.3013 13.4637 74.096 15.1193ZM94.732 25.1258C92.5467 25.1258 90.728 24.3142 89.276 22.6911C87.8093 21.068 87.076 19.0553 87.076 16.6531C87.076 14.2347 87.8093 12.2139 89.276 10.5908C90.728 8.96769 92.5467 8.15613 94.732 8.15613C96.9173 8.15613 98.7433 8.96769 100.21 10.5908C101.677 12.2139 102.41 14.2347 102.41 16.6531C102.41 19.0716 101.677 21.0842 100.21 22.6911C98.7433 24.3142 96.9173 25.1258 94.732 25.1258ZM94.732 21.1086C95.876 21.1086 96.8 20.6784 97.504 19.8182C98.2227 18.9742 98.582 17.9191 98.582 16.6531C98.582 15.3871 98.2227 14.3321 97.504 13.4881C96.8 12.6278 95.8687 12.1977 94.71 12.1977C93.5807 12.1977 92.6567 12.6278 91.938 13.4881C91.234 14.3321 90.882 15.3871 90.882 16.6531C90.882 17.9191 91.234 18.9742 91.938 19.8182C92.6567 20.6784 93.588 21.1086 94.732 21.1086ZM109.428 14.3158V24.9553H105.204V8.81349L109.428 8.30221V9.78736C110.367 8.81349 111.569 8.32656 113.036 8.32656C114.928 8.32656 116.38 8.95957 117.392 10.2256C118.492 8.95957 120.142 8.32656 122.342 8.32656C124.249 8.32656 125.708 8.95957 126.72 10.2256C127.717 11.5079 128.216 12.9849 128.216 14.6567V24.9553H124.014V15.801C124.014 14.6973 123.787 13.837 123.332 13.2202C122.877 12.6197 122.144 12.3032 121.132 12.2707C120.296 12.3356 119.577 12.9443 118.976 14.0967C118.917 14.4376 118.888 14.7865 118.888 15.1436V24.9553H114.686V15.801C114.686 14.6973 114.459 13.837 114.004 13.2202C113.549 12.6197 112.816 12.3032 111.804 12.2707C110.88 12.3356 110.088 13.0174 109.428 14.3158ZM133.87 13.1472L132.22 10.323C134.127 8.99203 136.334 8.32656 138.842 8.32656C140.646 8.32656 142.069 8.87842 143.11 9.98213C144.166 11.1021 144.694 12.7658 144.694 14.9732V24.9553H140.492V23.6406C139.26 24.5171 138.153 24.9553 137.17 24.9553C135.175 24.9553 133.672 24.4846 132.66 23.5432C131.663 22.6018 131.164 21.3033 131.164 19.6478C131.164 18.0896 131.641 16.7018 132.594 15.4845C133.533 14.2671 135.058 13.6585 137.17 13.6585C138.153 13.6585 139.26 13.9912 140.492 14.6567V14.1454C140.463 12.9281 139.656 12.2626 138.072 12.149C136.268 12.149 134.867 12.4817 133.87 13.1472ZM140.492 19.9643V18.0896C140.096 17.2293 139.143 16.7992 137.632 16.7992C135.828 17.0264 134.875 17.8055 134.772 19.1365C134.875 20.4512 135.828 21.1654 137.632 21.279C139.143 21.279 140.096 20.8407 140.492 19.9643ZM152.68 14.3889V24.9553H148.456V8.81349L152.68 8.30221V9.81171C153.692 8.82161 154.895 8.32656 156.288 8.32656C158.195 8.32656 159.647 8.95957 160.644 10.2256C161.641 11.5079 162.14 12.9849 162.14 14.6567V24.9553H157.938V15.801C157.938 14.6973 157.689 13.837 157.19 13.2202C156.677 12.6197 155.914 12.3032 154.902 12.2707C154.037 12.3356 153.296 13.0417 152.68 14.3889ZM169.884 24.9553H165.682V8.30221H169.884V24.9553ZM165.528 4.33371C165.528 4.99918 165.726 5.55104 166.122 5.98928C166.533 6.42752 167.09 6.64664 167.794 6.64664C168.483 6.64664 169.033 6.42752 169.444 5.98928C169.84 5.55104 170.038 4.99918 170.038 4.33371C170.038 3.66823 169.84 3.10826 169.444 2.65379C169.033 2.19932 168.469 1.97208 167.75 1.97208C167.075 1.97208 166.533 2.19932 166.122 2.65379C165.726 3.10826 165.528 3.66823 165.528 4.33371ZM175.494 13.1472L173.844 10.323C175.751 8.99203 177.958 8.32656 180.466 8.32656C182.27 8.32656 183.7 8.87842 184.756 9.98213C185.797 11.1021 186.318 12.7658 186.318 14.9732V24.9553H182.116V23.6406C180.899 24.5171 179.799 24.9553 178.816 24.9553C176.807 24.9553 175.303 24.4846 174.306 23.5432C173.294 22.6018 172.788 21.3033 172.788 19.6478C172.788 18.0896 173.265 16.7018 174.218 15.4845C175.157 14.2671 176.689 13.6585 178.816 13.6585C179.784 13.6585 180.884 13.9912 182.116 14.6567V14.1454C182.101 12.9281 181.302 12.2626 179.718 12.149C177.914 12.149 176.506 12.4817 175.494 13.1472ZM182.116 19.9643V18.0896C181.72 17.2293 180.767 16.7992 179.256 16.7992C177.452 17.0264 176.499 17.8055 176.396 19.1365C176.499 20.4512 177.452 21.1654 179.256 21.279C180.767 21.279 181.72 20.8407 182.116 19.9643Z" />
</g>
<defs>
<clipPath id="clip0_9_24">
<rect width="186.318" height="31.9672" fill="white"/>
</clipPath>
</defs>
</svg>
